<?xml version="1.0" encoding="UTF-8" standalone="no"?>
<svg
   version="1.0"
   id="Layer_1"
   x="0px"
   y="0px"
   viewBox="0 0 1245 837.1"
   style="enable-background:new 0 0 1245 837.1;"
   xml:space="preserve"
   sodipodi:docname="kali.svg"
   inkscape:version="1.2.2 (b0a8486541, 2022-12-01)"
   xmlns:inkscape="http://www.inkscape.org/namespaces/inkscape"
   xmlns:sodipodi="http://sodipodi.sourceforge.net/DTD/sodipodi-0.dtd"
   xmlns="http://www.w3.org/2000/svg"
   xmlns:svg="http://www.w3.org/2000/svg"><defs
     id="defs3071"><linearGradient
       id="SVGID_2_-3"
       gradientUnits="userSpaceOnUse"
       x1="493.20981"
       y1="408.43521"
       x2="695.88977"
       y2="205.7552">	<stop
   offset="0"
   style="stop-color:#249EFF"
   id="stop3053-6" />	<stop
   offset="1"
   style="stop-color:#2777F"
   id="stop3055-0" /></linearGradient></defs><sodipodi:namedview
     id="namedview3069"
     pagecolor="#ffffff"
     bordercolor="#000000"
     borderopacity="0.25"
     inkscape:showpageshadow="2"
     inkscape:pageopacity="0.0"
     inkscape:pagecheckerboard="0"
     inkscape:deskcolor="#d1d1d1"
     showgrid="false"
     inkscape:zoom="0.68722828"
     inkscape:cx="181.16251"
     inkscape:cy="455.45274"
     inkscape:window-width="1910"
     inkscape:window-height="1009"
     inkscape:window-x="0"
     inkscape:window-y="35"
     inkscape:window-maximized="1"
     inkscape:current-layer="Layer_1" /><style
     type="text/css"
     id="style3040">	.st0{fill:url(#SVGID_1_);}	.st1{opacity:0.3;enable-background:new ;}	.st2{opacity:0.1;fill:#FFFFFF;enable-background:new ;}	.st3{fill:url(#SVGID_2_);}	.st4{fill:#FFFFFF;}</style><linearGradient
     id="SVGID_1_"
     gradientUnits="userSpaceOnUse"
     x1="510.0776"
     y1="413.378"
     x2="712.7576"
     y2="210.698"
     gradientTransform="matrix(1.06 0 0 1.06 -75.39 138.3671)">	<stop
   offset="0"
   style="stop-color:#001a2f;stop-opacity:1;"
   id="stop3042" />	<stop
   offset="1"
   style="stop-color:#2777FF"
   id="stop3044" /></linearGradient><circle
     class="st0"
     cx="623.29999"
     cy="418.5"
     r="329.10001"
     id="circle3047"
     style="display:inline;fill:none" /><path
     class="st2"
     d="m 623.3,89.4 c -181.8,0 -329.2,147.4 -329.2,329.1 v 0 c 0.1,3 0.2,6 0.3,9.1 C 297.9,248.5 444.1,105 623.2,104.9 801.4,105 947.1,246.9 952,425 c 0.1,-2.1 0.2,-4.3 0.3,-6.4 C 952.4,236.8 805.1,89.4 623.3,89.4 Z"
     id="path3051"
     style="display:inline" /><linearGradient
     id="SVGID_2_"
     gradientUnits="userSpaceOnUse"
     x1="493.2098"
     y1="408.4352"
     x2="695.8898"
     y2="205.7552"
     gradientTransform="matrix(1.21 0 0 1.21 -153.21 102.8195)">	<stop
   offset="0"
   style="stop-color:#249EFF"
   id="stop3053" />	<stop
   offset="1"
   style="stop-color:#2777FF"
   id="stop3055" /></linearGradient><ellipse
     class="st3"
     cx="622"
     cy="418.5"
     rx="374"
     ry="374.5"
     id="ellipse3058"
     style="display:inline;fill:none;fill-opacity:1"
     inkscape:label="ellipse3058" /><path
     class="st2"
     d="m 623,44 c -206.6,0 -374,167.7 -374,374.5 0.1,3.4 0.2,6.9 0.4,10.3 4,-203.8 170.1,-367 373.7,-367.2 202.3,0.2 367.9,161.6 373.5,364.3 0.2,-2.4 0.3,-4.9 0.4,-7.3 C 997,211.7 829.5,44 623,44 Z"
     id="path3062"
     style="display:inline"
     inkscape:label="up-light" /><path
     class="st1"
     d="m 721.12163,338.43855 c -11.9831,-4.02785 -27.07631,-8.34339 -37.32141,-8.34339 -11.6172,0 -16.73975,-1.24672 -26.71042,-6.61718 -8.78151,-4.69915 -13.62963,-8.82289 -16.5568,-14.48106 -2.92717,-5.65816 -4.20781,-13.61795 -4.20781,-26.18099 v -23.01625 l -19.0266,-7.76799 c -55.15885,-22.72855 -111.59833,-30.30473 -217.34233,-29.63342 -15.00174,0.0959 -26.25305,0.1918 -34.21129,0.2877 -7.95824,0.0959 -12.25752,0.1918 -14.54437,0.38361 -0.27443,0 -0.64032,0.0959 -0.91474,0.0959 -0.27443,0 -0.45737,0.0959 -0.7318,0.1918 -0.73179,0.0959 -1.37211,0.5754 -1.82948,1.15081 -0.82326,0.86311 -1.28063,1.91802 -1.37211,3.06883 0,1.24672 0.3659,2.49343 1.18917,3.45244 0.45737,0.67131 1.09768,1.15082 1.82948,1.34262 0.36589,0.1918 0.73179,0.2877 1.09768,0.2877 1.09769,0.1918 2.28686,0.2877 4.29928,0.47951 3.93339,0.2877 10.33657,0.7672 18.84366,1.24671 101.17029,6.32947 164.10443,16.49498 216.42759,34.71618 l 4.66517,1.63032 -19.57544,0.76721 c -90.55931,3.64424 -158.70747,10.45321 -217.98265,21.76954 -17.92891,3.45244 -28.63138,5.56226 -34.85161,7.09668 -2.37833,0.4795 -4.66518,1.24671 -6.76908,2.30162 -1.37211,0.57541 -2.37833,1.63032 -2.92717,3.06884 -0.45737,1.15081 -0.45737,2.39752 -0.18295,3.64424 0.27442,0.86311 0.73179,1.63032 1.28064,2.20572 0.54884,0.67131 1.28064,1.15081 2.1039,1.24672 0.27442,0.0959 0.64032,0.0959 0.91474,0.1918 0.45737,0 0.82327,0.0959 1.18916,0.0959 0.7318,0 1.64654,0 2.74423,-0.0959 2.19537,-0.0959 5.21402,-0.38361 8.87298,-0.76721 7.31792,-0.76721 17.19712,-1.91802 27.99106,-3.35654 56.43948,-7.57618 109.40295,-12.56304 154.04229,-14.48106 20.39871,-0.86311 48.29829,-0.76721 70.98386,0.0959 2.46979,0.0959 3.93338,0.28771 6.22023,0.38361 -47.38355,8.05569 -124.31323,34.33258 -172.703,59.36275 -12.89784,6.71308 -25.52125,14.00156 -37.77878,22.05725 -4.11633,2.68523 -8.14119,5.65816 -11.9831,8.72699 -1.28063,1.05491 -2.46979,2.30163 -3.56748,3.54834 -0.64032,0.76721 -1.09769,1.63032 -1.28064,2.58933 -0.3659,1.82212 0.0915,3.74014 1.28064,5.27456 1.64653,1.72622 2.74422,1.43851 3.29306,1.43851 0.3659,0 0.73179,0 1.09769,-0.0959 0.45737,-0.0959 0.82327,-0.1918 1.28064,-0.3836 0.82326,-0.2877 1.82948,-0.67131 3.01864,-1.15081 2.4698,-1.05492 5.76287,-2.58933 9.78772,-4.41145 8.14119,-3.83605 19.11808,-9.2065 31.10118,-15.34417 69.88617,-32.70226 128.9784,-56.38982 212.76863,-60.03406 1.18916,2.68523 2.65274,6.13766 4.29928,10.06961 l 7.31792,17.45399 c -69.61175,46.12841 -47.65798,152.38678 29.08875,165.81293 11.52573,1.82212 23.14293,2.97293 34.85161,3.35654 40.24858,1.72621 54.70148,5.75406 81.50337,23.20805 20.12429,13.04255 37.50436,32.22276 51.31694,56.48572 5.48844,9.59011 12.07457,25.41379 17.19712,40.08665 2.56127,7.38438 4.75665,14.48106 6.31171,20.52282 1.55506,6.04177 2.37832,11.02863 2.37832,13.23435 0,2.49343 0.27443,4.98685 1.00622,7.38438 0.36589,1.15081 0.82326,2.20573 1.55506,3.16474 1.09769,1.53441 2.74422,2.39752 4.5737,2.49342 1.37211,-0.0959 2.74422,-0.6713 3.75044,-1.72622 0.64031,-0.6713 1.09768,-1.43851 1.37211,-2.39752 0.45737,-1.34262 0.73179,-2.68523 0.73179,-4.12375 0.18295,-3.64424 0,-7.28848 -0.3659,-10.83682 -1.09769,-10.35731 -2.83569,-20.61872 -5.21402,-30.78424 -8.78151,-37.11371 -32.01591,-75.47413 -61.01319,-101.65512 37.68731,13.13845 68.23964,42.77187 79.39947,77.20035 0.45737,1.72622 1.37212,3.35654 2.4698,4.69916 0.7318,0.95901 1.73801,1.63031 2.92717,1.91802 1.73801,0.3836 3.56749,-0.19181 4.9396,-1.43852 2.28685,-2.39753 1.82948,-4.41145 1.73801,-6.13767 -0.18295,-1.91802 -0.45737,-3.74014 -1.00622,-5.56226 -1.28063,-4.89095 -2.92717,-9.68601 -4.84812,-14.38516 -4.20781,-10.64501 -9.97067,-22.53675 -15.36764,-30.30473 -20.12429,-28.67442 -62.75119,-52.26608 -110.77507,-62.62339 -11.43425,-2.49343 -37.41288,-6.61718 -58.90928,-6.61718 -1.55506,0 -22.50262,-1.82212 -30.09496,-2.49342 -76.38083,-7.00078 -71.25828,-121.98615 6.86055,-121.98615 11.06836,0 17.92891,0.47951 28.26548,3.64424 10.33657,3.16474 23.9662,8.9188 47.65798,19.46792 10.33656,4.60325 16.1909,7.48028 19.11807,9.5901 2.92717,2.10983 3.20159,2.87703 4.11633,5.94587 1.09769,3.74014 1.28064,9.1106 4.39076,12.17943 3.11012,3.06884 16.09943,7.67209 21.8623,11.02862 9.87919,6.04177 14.81879,9.68601 23.41735,21.48184 9.14741,-12.37124 12.98931,-12.75484 23.87473,-16.49498 -16.19091,-1.91802 -37.59584,-19.08431 -26.71042,-20.90643 -9.8792,-9.3024 -12.16605,-25.60558 -16.9227,-28.38672 -1.09769,-0.95901 -2.28685,-1.72621 -3.65896,-2.30162 l -19.84987,-2.10982 C 767.31603,360.39989 736.3978,344.28851 720.84721,339.01395 Z m 88.54688,33.18176 c 0,-1.05491 -0.27442,-2.10982 -0.82327,-2.97293 -0.36589,-0.57541 -0.73179,-1.15081 -1.09769,-1.72622 -0.91474,-1.24671 -1.92095,-2.39752 -3.01864,-3.45244 -27.16779,-27.04409 -60.83024,-47.85462 -95.68185,-60.70537 -2.1039,-0.86311 -4.29928,-1.43851 -6.58613,-1.91802 -1.00622,-0.1918 -2.10391,-0.2877 -3.11012,-0.0959 -0.91474,0.1918 -1.82948,0.57541 -2.56127,1.24672 -1.00622,1.05491 -1.64654,2.39752 -1.64654,3.83604 -0.0915,0.95901 0.27443,2.01392 0.82327,2.78113 0.18295,0.2877 0.3659,0.57541 0.64032,0.76721 0.27442,0.2877 0.54884,0.4795 0.82327,0.6713 0.45737,0.38361 1.00621,0.67131 1.64653,1.05492 1.28063,0.7672 2.92717,1.82212 5.03107,2.97293 27.16779,13.61795 48.57272,22.72855 70.16059,41.42926 7.4094,5.65816 9.33036,11.79583 17.83744,13.13844 z"
     id="path3064"
     style="display:inline;stroke-width:0.936614"
     inkscape:label="shadow-kali" /><path
     class="st4"
     d="m 704.6829,327.02036 c -12.04649,-4.00952 -27.21954,-8.30544 -37.51883,-8.30544 -11.67865,0 -16.82829,-1.24104 -26.85171,-6.58707 -8.82795,-4.67778 -13.70172,-8.78276 -16.64438,-14.41519 -2.94265,-5.63242 -4.23006,-13.55601 -4.23006,-26.0619 V 248.7392 l -19.12724,-7.73265 C 544.86006,218.38138 488.12204,210.83966 381.8187,211.50791 c -15.0811,0.0955 -26.39192,0.19093 -34.39226,0.2864 -8.00033,0.0955 -12.32236,0.19093 -14.6213,0.38186 -0.27588,0 -0.64371,0.0955 -0.91958,0.0955 -0.27588,0 -0.45979,0.0955 -0.73567,0.19093 -0.73566,0.0955 -1.37936,0.57279 -1.83915,1.14558 -0.82762,0.85918 -1.28741,1.9093 -1.37937,3.05487 0,1.24105 0.36783,2.48209 1.19545,3.43674 0.45979,0.66825 1.1035,1.14558 1.83916,1.33651 0.36783,0.19093 0.73566,0.28639 1.10349,0.28639 1.1035,0.19093 2.29895,0.2864 4.32202,0.47733 3.95419,0.28639 10.39125,0.76371 18.94333,1.24104 101.70544,6.30068 164.97248,16.41995 217.5724,34.55827 l 4.68985,1.6229 -19.67899,0.76372 c -91.13028,3.62766 -159.54696,10.40567 -219.13568,21.67052 -18.02375,3.43673 -28.78282,5.53696 -35.03596,7.0644 -2.39091,0.47732 -4.5979,1.24104 -6.80489,2.19569 -1.37936,0.57279 -2.3909,1.71836 -2.94265,3.05487 -0.45979,1.14558 -0.45979,2.38662 -0.18391,3.62766 0.27587,0.76372 0.73566,1.52744 1.28741,2.10023 0.55174,0.66826 1.28741,1.14558 2.11503,1.24104 0.27587,0.0955 0.6437,0.0955 0.91958,0.19093 0.36783,0.0955 0.82762,0.0955 1.19545,0.0955 0.73566,0 1.65524,0 2.75874,-0.0955 2.20699,-0.0955 5.2416,-0.38186 8.91991,-0.76371 7.35664,-0.76372 17.28809,-1.9093 28.13912,-3.34127 56.73803,-7.54173 109.98165,-12.5059 154.85711,-14.41519 20.50661,-0.85919 48.55377,-0.76372 71.35933,0.0955 2.48287,0.0955 3.95419,0.28639 6.25314,0.38186 -47.63419,8.11451 -124.97079,34.17641 -173.61652,59.1882 -12.96606,6.68254 -25.65625,13.93786 -37.97861,21.95691 -4.13811,2.67302 -8.18426,5.63243 -12.04649,8.6873 -1.28741,1.05011 -2.48286,2.19569 -3.58636,3.5322 -0.6437,0.76372 -1.10349,1.6229 -1.28741,2.48209 -0.36783,1.81383 0.092,3.81859 1.28741,5.25056 1.65524,1.71837 2.75874,1.43197 3.31049,1.43197 0.36783,0 0.73566,0 1.10349,-0.0955 0.45979,-0.0955 0.82762,-0.19093 1.28741,-0.38186 0.82762,-0.2864 1.83916,-0.66825 3.03461,-1.14558 2.48287,-1.05011 5.79335,-2.57755 9.8395,-4.39138 8.18425,-3.81859 19.2192,-9.16463 31.26569,-15.27437 70.25583,-32.55351 129.66064,-56.13333 213.89408,-59.76099 1.19545,2.67301 2.66678,6.10975 4.32202,10.02381 l 7.35663,17.3746 c -69.79605,45.63219 -47.81811,151.40723 29.42653,164.7723 11.5867,1.81383 23.26535,2.95941 34.944,3.34127 40.46148,1.71837 54.99083,5.72789 81.9345,23.10249 20.23073,12.98322 37.70274,32.07619 51.58838,56.22879 5.51747,9.54648 12.13844,25.29818 17.28809,39.9043 2.57482,7.35079 4.78181,14.41519 6.34509,20.42948 1.56329,6.01428 2.39091,10.97845 2.39091,13.17414 0,2.48209 0.27587,4.96418 1.01153,7.3508 0.36783,1.14557 0.82762,2.19569 1.56329,3.15034 1.10349,1.52743 2.75873,2.38662 4.59789,2.48208 1.37937,-0.0955 2.75874,-0.66825 3.77028,-1.71837 0.6437,-0.66825 1.10349,-1.43197 1.37937,-2.38662 0.45978,-1.3365 0.73566,-2.67301 0.73566,-4.10498 0.18391,-3.62767 0,-7.25533 -0.36783,-10.78753 -1.1035,-10.3102 -2.8507,-20.52494 -5.2416,-30.64421 -8.82796,-36.94489 -32.18527,-75.13083 -61.33592,-101.19273 37.88665,13.07868 68.60059,42.48185 79.81945,76.84919 0.45979,1.71837 1.37937,3.34127 2.48287,4.67778 0.73566,0.95465 1.7472,1.6229 2.94265,1.9093 1.7472,0.38186 3.58636,-0.19093 4.96573,-1.43197 2.29895,-2.38663 1.83916,-4.39139 1.7472,-6.10975 -0.18392,-1.9093 -0.45979,-3.72313 -1.01154,-5.53696 -1.28741,-4.86871 -2.94265,-9.64195 -4.87377,-14.31973 -4.23006,-10.5966 -10.02341,-22.43424 -15.44893,-30.16689 -20.23073,-28.54398 -63.08312,-52.02833 -111.36102,-62.33854 -11.49473,-2.48208 -37.61078,-6.58707 -59.12893,-6.58707 -1.56328,0 -22.62164,-1.81383 -30.25415,-2.48209 -76.78485,-6.96893 -71.6352,-121.43127 6.89684,-121.43127 11.12691,0 18.02375,0.47733 28.415,3.62767 10.39124,3.15034 24.09297,8.87823 47.91006,19.37936 10.39125,4.58231 16.27655,7.44626 19.21921,9.54648 2.94265,2.10023 3.21852,2.86395 4.1381,5.91882 1.1035,3.72313 1.28741,9.06916 4.41398,12.12404 3.12657,3.05487 16.18459,7.63718 21.97794,10.97845 9.93145,6.01429 14.89718,9.64195 23.54122,21.38413 9.19579,-12.31497 13.05803,-12.69683 24.00102,-16.41996 -16.27655,-1.90929 -37.7947,-18.9975 -26.85171,-20.81133 -9.93146,-9.26009 -12.2304,-25.48911 -17.01221,-28.25759 -1.1035,-0.95465 -2.39091,-1.71837 -3.67832,-2.29116 l -19.95486,-2.10022 C 751.48947,348.30902 720.4077,332.27093 704.6829,327.02036 Z m 89.01525,33.03084 c 0,-1.05011 -0.27588,-2.10023 -0.82762,-2.95941 -0.36784,-0.57279 -0.73567,-1.14558 -1.1035,-1.71837 -0.91958,-1.24104 -1.93111,-2.38662 -3.03461,-3.43673 -27.3115,-26.92109 -61.15201,-47.63696 -96.18797,-60.42924 -2.11503,-0.85919 -4.32202,-1.43198 -6.62097,-1.9093 -1.01153,-0.19093 -2.11503,-0.2864 -3.12656,-0.0955 -0.91958,0.19093 -1.83916,0.57279 -2.57483,1.24105 -1.01153,1.05011 -1.65524,2.38662 -1.65524,3.81859 -0.092,0.95465 0.27588,2.00476 0.82762,2.76848 0.18392,0.2864 0.36784,0.57279 0.64371,0.76372 0.27587,0.28639 0.55175,0.47732 0.82762,0.66825 0.45979,0.38186 1.01154,0.66826 1.65524,1.14558 1.28741,0.76372 2.94266,1.81383 5.05769,2.95941 27.31149,13.55601 48.82964,22.62517 70.53171,41.14535 7.44859,5.63242 9.3797,11.74217 17.93179,13.07868 z"
     id="path3066"
     style="display:inline;stroke-width:0.93695;fill:#b32a00;fill-opacity:1"
     inkscape:label="kali" /></svg>
