<svg version="1.0" id="Layer_1" x="0px" y="0px" viewBox="0 0 1245 837.1" style="enable-background:new 0 0 1245 837.1;" xml:space="preserve" sodipodi:docname="windows.svg" inkscape:version="1.2.2 (732a01da63, 2022-12-09)" xmlns:inkscape="http://www.inkscape.org/namespaces/inkscape" xmlns:sodipodi="http://sodipodi.sourceforge.net/DTD/sodipodi-0.dtd" xmlns="http://www.w3.org/2000/svg" xmlns:svg="http://www.w3.org/2000/svg"><defs id="defs3071"><linearGradient id="SVGID_2_-3" gradientUnits="userSpaceOnUse" x1="493.20981" y1="408.43521" x2="695.88977" y2="205.7552" gradientTransform="matrix(1.21,0,0,1.21,-151.91666,102.07198)">	<stop offset="0" style="stop-color:#249EFF" id="stop3053-6"/>	<stop offset="1" style="stop-color:#2777FF" id="stop3055-0"/></linearGradient></defs> <sodipodi:namedview id="namedview3069" pagecolor="#ffffff" bordercolor="#000000" borderopacity="0.25" inkscape:showpageshadow="2" inkscape:pageopacity="0.0" inkscape:pagecheckerboard="0" inkscape:deskcolor="#d1d1d1" showgrid="false" inkscape:zoom="0.68722828" inkscape:cx="445.99445" inkscape:cy="455.45274" inkscape:window-width="1920" inkscape:window-height="1017" inkscape:window-x="-8" inkscape:window-y="-8" inkscape:window-maximized="1" inkscape:current-layer="Layer_1"/> <linearGradient id="SVGID_1_" gradientUnits="userSpaceOnUse" x1="510.0776" y1="413.378" x2="712.7576" y2="210.698" gradientTransform="matrix(1.06 0 0 1.06 -75.39 138.3671)">	<stop offset="0" style="stop-color:#249EFF" id="stop3042"/> <stop offset="1" style="stop-color:#2777FF" id="stop3044"/></linearGradient> <circle class="st0" cx="623.29999" cy="418.5" r="329.10001" id="circle3047" style="display:inline"/> <path class="st1" d="M 952.1,409.4 C 948.6,588.5 802.5,732 623.3,732.2 445.1,732.1 299.4,590.2 294.5,412.1 c -0.1,2.1 -0.2,4.3 -0.3,6.4 0,181.8 147.4,329.1 329.2,329.1 v 0 c 181.8,0 329.1,-147.4 329.1,-329.1 v 0 c -0.1,-3 -0.2,-6 -0.4,-9.1 z" id="path3049" style="display:inline"/> <path class="st2" d="m 623.3,89.4 c -181.8,0 -329.2,147.4 -329.2,329.1 v 0 c 0.1,3 0.2,6 0.3,9.1 C 297.9,248.5 444.1,105 623.2,104.9 801.4,105 947.1,246.9 952,425 c 0.1,-2.1 0.2,-4.3 0.3,-6.4 C 952.4,236.8 805.1,89.4 623.3,89.4 Z" id="path3051" style="display:inline"/> <linearGradient id="SVGID_2_" gradientUnits="userSpaceOnUse" x1="493.2098" y1="408.4352" x2="695.8898" y2="205.7552" gradientTransform="matrix(1.21 0 0 1.21 -153.21 102.8195)">	<stop offset="0" style="stop-color:#249EFF" id="stop3053"/> <stop offset="1" style="stop-color:#2777FF" id="stop3055"/></linearGradient> <ellipse class="st3" cx="622" cy="418.5" rx="374" ry="374.5" id="ellipse3058" style="display:inline"/> <path class="st1" d="M 996.6,408.2 C 992.6,612 826.5,775.2 622.9,775.4 420.4,775.3 254.8,613.9 249.2,411.2 c -0.1,2.4 -0.3,4.9 -0.4,7.3 0,206.8 167.5,374.5 374,374.5 C 829.3,793 997,625.3 997,418.5 v 0 c -0.1,-3.4 -0.2,-6.8 -0.4,-10.3 z" id="path3060" style="display:inline"/> <path class="st2" d="m 623,44 c -206.6,0 -374,167.7 -374,374.5 0.1,3.4 0.2,6.9 0.4,10.3 4,-203.8 170.1,-367 373.7,-367.2 202.3,0.2 367.9,161.6 373.5,364.3 0.2,-2.4 0.3,-4.9 0.4,-7.3 C 997,211.7 829.5,44 623,44 Z" id="path3062" style="display:inline"/> <g id="shadow" transform="matrix(1.5625,0,0,1.5625,234.76962,46.004737)" inkscape:label="shadow-windows">	<path style="fill:#000000;fill-opacity:1" d="m 232,246.516 c 0,-38.996 0,-77.988 0,-116.984 -40,6.324 -72.536,12.624 -112,18.944 0,39.78 0,59.672 0,99.456 39.464,-0.46 72,-0.952 112,-1.416 z" id="path291-9"/> <path style="fill:#000000;fill-opacity:1" d="m 248,246.284 c 40,-0.48 88.536,-0.936 128,-1.42 0,-45.78 0,-91.564 0,-137.344 -39.464,6.324 -88,12.62 -128,18.948 0,39.94 0,79.876 0,119.816 z" id="path293-8"/> <path style="fill:#000000;fill-opacity:1" d="m 249.6,265.72 c -0.016,39.936 0,79.876 0,119.816 39.46,6.324 86.928,12.624 126.4,18.944 0,-45.78 0,-91.568 0,-137.344 -39.464,-0.468 -86.928,-0.944 -126.4,-1.416 z" id="path295-8"/> <path style="fill:#000000;fill-opacity:1" d="m 232,265.484 c -40,-0.476 -72.536,-0.944 -112,-1.42 0,39.784 0,59.672 0,99.456 39.464,6.328 72,12.62 112,18.944 0,-38.992 0,-77.984 0,-116.98 z" id="path297-9" inkscape:label="path297-9"/></g> <g id="windows" transform="matrix(1.5625,0,0,1.5625,216.206,30.536081)" inkscape:label="windows">	<path id="top-left" d="m 232,246.516 c 0,-38.996 0,-77.988 0,-116.984 -40,6.324 -72.536,12.624 -112,18.944 0,39.78 0,59.672 0,99.456 39.464,-0.46 72,-0.952 112,-1.416 z"/> <path d="m 248,246.284 c 40,-0.48 88.536,-0.936 128,-1.42 0,-45.78 0,-91.564 0,-137.344 -39.464,6.324 -88,12.62 -128,18.948 0,39.94 0,79.876 0,119.816 z" id="top-right"/> <path d="m 249.6,265.72 c -0.016,39.936 0,79.876 0,119.816 39.46,6.324 86.928,12.624 126.4,18.944 0,-45.78 0,-91.568 0,-137.344 -39.464,-0.468 -86.928,-0.944 -126.4,-1.416 z" id="bottom-right"/> <path d="m 232,265.484 c -40,-0.476 -72.536,-0.944 -112,-1.42 0,39.784 0,59.672 0,99.456 39.464,6.328 72,12.62 112,18.944 0,-38.992 0,-77.984 0,-116.98 z" id="bottom-left"/></g></svg>